<svg width="42" height="42" viewBox="0 0 42 42" fill="none" xmlns="http://www.w3.org/2000/svg">
<circle cx="21" cy="21" r="21" fill="#D5DBE7"/>
<path d="M13.5077 11.876C13.5703 11.3755 13.9957 11 14.5 11H27.5C28.0043 11 28.4297 11.3755 28.4923 11.876L29.9923 23.876C29.9974 23.9171 30 23.9585 30 24V30C30 30.5523 29.5523 31 29 31H13C12.4477 31 12 30.5523 12 30V24C12 23.9585 12.0026 23.9171 12.0077 23.876L13.5077 11.876ZM15.3828 13L14.1328 23H27.8672L26.6172 13H15.3828ZM28 25H14V29H28V25ZM24 26H26V28H24V26ZM22 26H20V28H22V26Z" fill="#3B4888"/>
</svg>
