<svg width="418" height="72" viewBox="0 0 418 72" fill="none" xmlns="http://www.w3.org/2000/svg">
<path d="M3.54153 46.4246L3.50262 46.2539C3.50173 46.2592 3.49731 46.322 3.54153 46.4246Z" fill="url(#paint0_linear_18015_26)"/>
<path d="M5.56207 47.6399L3.50083 40.8354L5.85653 42.2829L9.10536 48.6621C18.0206 51.3043 44.0386 59.3061 44.0386 59.3061L49.897 58.4095L0.0512695 25.9336L2.68641 42.6968L3.50171 46.2533L3.54062 46.424C3.6485 46.6725 4.05792 47.1562 5.56207 47.6399ZM6.61524 32.066L18.7448 50.6057L4.96076 31.1013L6.61524 32.066Z" fill="url(#paint1_linear_18015_26)"/>
<path d="M44.0386 60.3245C44.0386 60.3245 18.0206 52.3227 9.10624 49.6805C7.72324 49.2702 6.73816 48.9846 6.34023 48.8837C6.05019 48.8086 5.79729 48.7343 5.56296 48.6591C4.0588 48.1754 3.6485 47.6909 3.5415 47.4424L4.20383 50.3313H4.61767H5.23843L5.65138 50.8141L22.9505 55.0869L53.8267 65.5638L61.2006 69.2848L64.8536 71.9722H66.921V71.3523L49.897 59.4278L44.0386 60.3245Z" fill="url(#paint2_linear_18015_26)"/>
<path d="M72.1718 26.6274L71.9694 25.8979L70.5448 25.1064L70.1566 25.0613C69.9337 24.3221 69.4279 22.7888 68.5304 20.808C65.0702 13.159 55.8243 -0.958449 34.9439 0.0513932C34.9439 0.0513932 23.6393 0.808332 10.9588 6.39164L5.30653 7.76934L5.51345 8.80306L6.96101 9.07895L4.75563 13.6277L0 24.5865L0.0521722 24.9163L49.8979 57.3922L66.9201 69.3149L67.5409 69.5218L71.124 62.078V61.1822L71.7447 60.4925L72.8483 55.8067V53.2564L72.3567 52.8267L73.2905 52.8983L73.3532 52.427C75.0785 39.399 72.8855 29.3916 72.1718 26.6274ZM72.4044 51.823L71.8544 51.7894C70.849 51.4021 59.8902 47.1815 50.921 44.1431C42.2356 41.1993 34.6247 33.905 36.9247 26.7936C37.8638 23.8914 40.0771 22.4209 43.5054 22.4209C45.5136 22.4209 47.207 22.9576 47.2238 22.9576L48.3601 23.5262L70.138 26.0464L71.1028 26.5823L71.1868 26.8909C71.8792 29.5685 73.9926 39.208 72.4044 51.823Z" fill="url(#paint3_linear_18015_26)"/>
<path d="M121.129 26.3788H108.72V32.0802H125.153L130.184 37.111V47.5076L125.153 52.5384H105.031L100 47.5076V42.4769H106.372L109.055 45.16H121.464V39.4586H105.031L100 34.4279V24.0312L105.031 19.0005H125.153L130.184 24.0312V29.0619H123.812L121.129 26.3788ZM161.708 19.0002H170.428V52.5384H161.708V33.7574L155.805 45.16H151.446L145.61 33.7574V52.5384H136.89V19.0002H145.61L153.659 34.2262L161.708 19.0002ZM177.135 52.5384V24.0312L182.166 19.0005H201.618L206.648 24.0312V52.5384H197.929V43.1479H185.855V52.5384H177.135ZM185.855 35.7695H197.929V26.379H185.855V35.7695ZM243.54 24.0312V35.7693L238.509 40.8L243.54 48.5136V52.5381H235.491L228.515 41.1355H222.076V52.5381H213.356V19H238.509L243.54 24.0312ZM234.819 33.7574V26.379H222.074V33.7574H234.819ZM247.899 26.3788V19.0005H276.406V26.3788H266.479V52.5384H257.759V26.3788H247.899ZM301.625 19.0002H310.345V52.5384H301.625V39.4588H289.552V52.5384H280.765L280.832 19.0002H289.552V32.0798H301.625L301.625 19.0002ZM345.559 26.3788H325.772V32.0802H342.876V39.4586H325.772V45.16H345.559V52.5384H322.083L317.052 47.5076V19.0005H345.559L345.559 26.3788ZM352.268 47.5076V19.0005H360.988V45.16H379.098V52.5384H357.298L352.268 47.5076ZM408.946 19.0002H417.666V52.5384H408.946V33.7574L403.043 45.16H398.684L392.848 33.7574V52.5384H384.128V19.0002H392.848L400.897 34.2262L408.946 19.0002Z" fill="#141743"/>
<defs>
<linearGradient id="paint0_linear_18015_26" x1="3.5218" y1="46.2539" x2="3.5218" y2="46.4246" gradientUnits="userSpaceOnUse">
<stop stop-color="#22278D"/>
<stop offset="1" stop-color="#8885D4"/>
</linearGradient>
<linearGradient id="paint1_linear_18015_26" x1="24.9741" y1="25.9336" x2="24.9741" y2="59.3061" gradientUnits="userSpaceOnUse">
<stop stop-color="#22278D"/>
<stop offset="1" stop-color="#8885D4"/>
</linearGradient>
<linearGradient id="paint2_linear_18015_26" x1="35.2313" y1="47.4424" x2="35.2313" y2="71.9722" gradientUnits="userSpaceOnUse">
<stop stop-color="#22278D"/>
<stop offset="1" stop-color="#8885D4"/>
</linearGradient>
<linearGradient id="paint3_linear_18015_26" x1="37" y1="0" x2="37" y2="69.5218" gradientUnits="userSpaceOnUse">
<stop stop-color="#22278D"/>
<stop offset="1" stop-color="#8885D4"/>
</linearGradient>
</defs>
</svg>
